
        <svg xmlns="http://www.w3.org/2000/svg" xmlns:xlink="http://www.w3.org/1999/xlink" version="1.1" width="3283.450835922902" 
        height="2579.4026068984085" viewBox="0 0 3283.450835922902 2579.4026068984085">
			
			<g transform="scale(14.1725417961451) translate(10, 10)">
				<defs id="SvgjsDefs13764"><linearGradient id="SvgjsLinearGradient13769"><stop id="SvgjsStop13770" stop-color="#00ff8f" offset="0"></stop><stop id="SvgjsStop13771" stop-color="#00a1ff" offset="1"></stop></linearGradient></defs><g id="SvgjsG13765" featureKey="symbolFeature-0" transform="matrix(2.170706469102059,0,0,2.170706469102059,-2.7020539481077015,-27.567866166069336)" fill="url(#SvgjsLinearGradient13769)"><title xmlns="http://www.w3.org/2000/svg">Artboard 7</title><path xmlns="http://www.w3.org/2000/svg" d="M18.37,65.18A17.13,17.13,0,0,0,34.24,54.49H39a1.29,1.29,0,0,0,.92-.38l3-3a.49.49,0,0,1,.7,0l2.66,2.66a1.7,1.7,0,0,0,2.4,0l2.66-2.66a.49.49,0,0,1,.7,0l2.66,2.66a1.7,1.7,0,0,0,2.4,0l2.66-2.66a.49.49,0,0,1,.7,0l3,3a1.29,1.29,0,0,0,.91.38h4a1.11,1.11,0,0,0,.78-.32l5.6-5.6a.75.75,0,0,0,0-1.06l-5.6-5.6a1.1,1.1,0,0,0-.78-.32H34.24A17.13,17.13,0,1,0,18.37,65.18ZM10.57,44.3A3.74,3.74,0,1,1,6.84,48,3.74,3.74,0,0,1,10.57,44.3ZM98.76,16.7V65.9A13.91,13.91,0,0,1,87.4,79.56L39.85,87.33a4,4,0,0,1-3.13-1.49,4.17,4.17,0,0,1-.89-2.66V63.31a1.11,1.11,0,0,1,1.11-1.11h5.83a1.11,1.11,0,0,1,1.11,1.11V76.82L73.22,62.3A4,4,0,0,1,79,65.92a5.85,5.85,0,0,0,6.38,5.8,6,6,0,0,0,5.3-6.05V20.72H43.87v12a1.11,1.11,0,0,1-1.11,1.11H36.93a1.11,1.11,0,0,1-1.11-1.11V16.7a4,4,0,0,1,4-4H94.74A4,4,0,0,1,98.76,16.7Z"></path></g><g id="SvgjsG13766" featureKey="nameFeature-0" transform="matrix(1.25,0,0,1.25,232,81)" fill="#b469ff"><path d="  "></path></g>
			</g>
		</svg>
	