
        <svg xmlns="http://www.w3.org/2000/svg" xmlns:xlink="http://www.w3.org/1999/xlink" version="1.1" width="3168.5393258426966" 
        height="1213.4831460674159" viewBox="0 0 3168.5393258426966 1213.4831460674159">
			
			<g transform="scale(8.426966292134832) translate(10, 10)">
				<defs id="SvgjsDefs1353"><linearGradient id="SvgjsLinearGradient1360"><stop id="SvgjsStop1361" stop-color="#00ff8f" offset="0"></stop><stop id="SvgjsStop1362" stop-color="#00a1ff" offset="1"></stop></linearGradient></defs><g id="SvgjsG1354" featureKey="phAakL-0" transform="matrix(1.0254809386837163,0,0,1.0254809386837163,-1.2764990838331762,10.976442151028262)" fill="url(#SvgjsLinearGradient1360)"><title xmlns="http://www.w3.org/2000/svg">Artboard 7</title><path xmlns="http://www.w3.org/2000/svg" d="M18.37,65.18A17.13,17.13,0,0,0,34.24,54.49H39a1.29,1.29,0,0,0,.92-.38l3-3a.49.49,0,0,1,.7,0l2.66,2.66a1.7,1.7,0,0,0,2.4,0l2.66-2.66a.49.49,0,0,1,.7,0l2.66,2.66a1.7,1.7,0,0,0,2.4,0l2.66-2.66a.49.49,0,0,1,.7,0l3,3a1.29,1.29,0,0,0,.91.38h4a1.11,1.11,0,0,0,.78-.32l5.6-5.6a.75.75,0,0,0,0-1.06l-5.6-5.6a1.1,1.1,0,0,0-.78-.32H34.24A17.13,17.13,0,1,0,18.37,65.18ZM10.57,44.3A3.74,3.74,0,1,1,6.84,48,3.74,3.74,0,0,1,10.57,44.3ZM98.76,16.7V65.9A13.91,13.91,0,0,1,87.4,79.56L39.85,87.33a4,4,0,0,1-3.13-1.49,4.17,4.17,0,0,1-.89-2.66V63.31a1.11,1.11,0,0,1,1.11-1.11h5.83a1.11,1.11,0,0,1,1.11,1.11V76.82L73.22,62.3A4,4,0,0,1,79,65.92a5.85,5.85,0,0,0,6.38,5.8,6,6,0,0,0,5.3-6.05V20.72H43.87v12a1.11,1.11,0,0,1-1.11,1.11H36.93a1.11,1.11,0,0,1-1.11-1.11V16.7a4,4,0,0,1,4-4H94.74A4,4,0,0,1,98.76,16.7Z"></path></g><g id="SvgjsG1355" featureKey="textGroupContainer" transform="matrix(1,0,0,1,355,0)" fill="#ffffff"><rect xmlns="http://www.w3.org/2000/svg" y="0" height="1" width="1" opacity="0"></rect><rect xmlns="http://www.w3.org/2000/svg" y="0" x="-235" width="3" height="124"></rect></g><g id="SvgjsG1356" featureKey="fNbRbf-0" transform="matrix(3.3156500938338436,0,0,3.3156500938338436,137.00530414181162,12.167108036192829)" fill="#01befc"><path d="M4.8 12.32 l0 7.68 q-0.34 0.06 -0.74 0.09 t-0.82 0.03 t-0.83 -0.03 t-0.75 -0.09 l0 -6.62 q0 -1.16 -0.94 -1.16 l-0.3 0 q-0.12 -0.38 -0.12 -1.06 q0 -0.66 0.12 -1.12 q0.52 -0.04 0.96 -0.07 t0.8 -0.03 l0.44 0 q1.02 0 1.6 0.64 t0.58 1.74 z M1.3 6 q0.58 -0.32 1.5 -0.32 q0.94 0 1.46 0.32 q0.24 0.54 0.24 1.16 t-0.24 1.16 q-0.58 0.3 -1.52 0.3 t-1.44 -0.3 q-0.24 -0.54 -0.24 -1.16 t0.24 -1.16 z M12.5 13.98 q0 -1.34 -0.9 -1.34 q-0.32 0 -0.65 0.19 t-0.67 0.49 l0 6.68 q-0.34 0.06 -0.74 0.09 t-0.82 0.03 t-0.82 -0.03 t-0.74 -0.09 l0 -9.98 l0.14 -0.14 l1.16 0 q1.28 0 1.68 1.26 q1.42 -1.3 2.76 -1.3 q1.62 0 2.34 1.38 q1.56 -1.38 2.96 -1.38 t2.09 0.87 t0.69 2.31 l0 4.48 q0 1.3 0.5 1.98 q-0.76 0.68 -1.82 0.68 q-1.04 0 -1.42 -0.48 t-0.38 -1.46 l0 -4.26 q0 -1.32 -0.94 -1.32 q-0.58 0 -1.28 0.7 l0 6.66 q-0.34 0.06 -0.74 0.09 t-0.82 0.03 t-0.83 -0.03 t-0.75 -0.09 l0 -6.02 z M29.400000000000002 10.66 q0.68 -0.76 1.88 -0.8 q0.32 0.24 0.61 0.72 t0.35 0.88 q-0.56 0.38 -0.56 1.44 l0 5.28 q0 1.84 -0.29 3.05 t-0.88 1.92 t-1.49 0.99 t-2.12 0.28 q-2.06 0 -3.76 -0.66 q0 -0.56 0.22 -1.22 t0.54 -1.04 q1.34 0.6 2.72 0.6 q2.02 0 2.02 -2.02 l0 -0.66 q-1.08 0.78 -2.28 0.78 q-1.78 0 -2.69 -1.41 t-0.91 -3.83 q0 -1.22 0.31 -2.19 t0.85 -1.65 t1.25 -1.04 t1.51 -0.36 q1.62 0 2.72 0.94 z M28.64 17 l0 -4.28 q-0.7 -0.68 -1.32 -0.68 q-1.36 0 -1.36 3 q0 2.64 1.18 2.64 q0.82 0 1.5 -0.68 z M33.24 19.32 q0.02 -0.52 0.27 -1.14 t0.59 -0.98 q1.6 0.84 2.78 0.84 q0.56 0 0.86 -0.19 t0.3 -0.51 q0 -0.6 -0.92 -0.9 l-1.1 -0.42 q-2.5 -0.92 -2.5 -3 q0 -1.52 1.05 -2.41 t2.83 -0.89 q0.88 0 1.94 0.25 t1.74 0.59 q0.04 0.56 -0.22 1.23 t-0.64 0.95 q-1.68 -0.76 -2.8 -0.76 q-0.4 0 -0.61 0.18 t-0.21 0.46 q0 0.48 0.76 0.76 l1.24 0.44 q2.66 0.94 2.66 3.22 q0 1.5 -1.1 2.38 t-3.14 0.88 t-3.78 -0.98 z M50.68000000000001 16.02 l-5.22 0 q0.04 0.9 0.46 1.4 t1.38 0.5 q0.48 0 1.11 -0.14 t1.45 -0.46 q0.66 0.68 0.82 1.84 q-1.6 1.14 -3.92 1.14 q-1.26 0 -2.11 -0.4 t-1.38 -1.12 t-0.75 -1.7 t-0.22 -2.14 q0 -1.12 0.27 -2.07 t0.82 -1.65 t1.4 -1.1 t1.99 -0.4 q0.96 0 1.73 0.32 t1.31 0.88 t0.83 1.34 t0.29 1.7 q0 1.22 -0.26 2.06 z M45.440000000000005 13.86 l2.64 0 l0 -0.22 q0 -0.74 -0.33 -1.22 t-0.99 -0.48 q-0.64 0 -0.95 0.45 t-0.37 1.47 z M57.82 14.440000000000001 l0 -0.26 q0 -1.12 -0.24 -1.63 t-0.9 -0.51 q-0.7 0 -0.98 0.69 t-0.28 2.29 q0 0.8 0.11 1.34 t0.32 0.87 t0.53 0.48 t0.76 0.15 q0.46 0 1.02 -0.2 t1.2 -0.64 q0.18 0.1 0.37 0.29 t0.35 0.43 t0.28 0.51 t0.18 0.51 q-0.66 0.7 -1.72 1.12 t-2.16 0.42 q-2.14 0 -3.28 -1.4 t-1.14 -3.98 q0 -1.32 0.37 -2.3 t0.98 -1.62 t1.4 -0.96 t1.65 -0.32 q0.88 0 1.61 0.24 t1.26 0.68 t0.82 1.05 t0.29 1.35 q0 0.84 -0.49 1.18 t-1.21 0.34 q-0.6 0 -1.1 -0.12 z"></path></g>
			</g>
		</svg>
	